# xmcd
#
# Track frame offsets:
#	150
#	13903
#	29850
#	45373
#	62070
#	75363
#	89558
#	108315
#	122458
#	139438
#	153675
#	167593
#	182353
#	202118
#
# Disc length: 2858
#
# Revision: 4
# Processed by: cddbd v1.5.1PL0 Copyright (c) Steve Scherf et al.
# Submitted via: CDex 1.40Beta8
# Normalized: r3:DSETVAR1,TDELIM( - )
#
DISCID=bc0b280e
DTITLE=Various Artist - Hot Hits Country Vol. 5
DYEAR=1900
DGENRE=Country
TTITLE0=Travis Tritt - T.R.O.U.B.L.E.
TTITLE1=Alan Jackson - Tonight I Climbed The Wall
TTITLE2=Aaron Tippin - My Blue Angel
TTITLE3=Trisha Yearwood - You Say You Will
TTITLE4=Sammy Kershaw - She Don't Know She's Beautiful
TTITLE5=McBride and The Ride - Love On The Loose, Heart On The Run
TTITLE6=Vince Gil - No Future In The Past
TTITLE7=Neal McCoy - Now I Pray For Rain
TTITLE8=Michelle Wright - The Change
TTITLE9=Lee Roy Parnell - Tender Moment
TTITLE10=Tracy Lawrence - Albis
TTITLE11=Diamond Rio - Oh Me Oh My Sweet Baby
TTITLE12=Wynonna - My Strongest Weakness
TTITLE13=George Jones - Wrong's What I Do Best
EXTD=ID3G: 2
EXTT0=
EXTT1=
EXTT2=
EXTT3=
EXTT4=
EXTT5=
EXTT6=
EXTT7=
EXTT8=
EXTT9=
EXTT10=
EXTT11=
EXTT12=
EXTT13=
PLAYORDER=
